<?xml version="1.0" encoding="UTF-8" standalone="no"?>
<!-- Generator: Adobe Illustrator 15.0.2, SVG Export Plug-In . SVG Version: 6.00 Build 0)  -->

<svg
   version="1.1"
   id="Capa_1"
   x="0px"
   y="0px"
   width="142.95"
   height="199.53999"
   viewBox="0 0 407.53436 526.78558"
   enable-background="new 0 0 612 792"
   xml:space="preserve"
   inkscape:version="1.4 (e7c3feb100, 2024-10-09)"
   sodipodi:docname="Real_Madrid_CF.svg"
   xmlns:inkscape="http://www.inkscape.org/namespaces/inkscape"
   xmlns:sodipodi="http://sodipodi.sourceforge.net/DTD/sodipodi-0.dtd"
   xmlns="http://www.w3.org/2000/svg"
   xmlns:svg="http://www.w3.org/2000/svg"
   xmlns:rdf="http://www.w3.org/1999/02/22-rdf-syntax-ns#"
   xmlns:cc="http://creativecommons.org/ns#"
   xmlns:dc="http://purl.org/dc/elements/1.1/"><metadata
   id="metadata129"><rdf:RDF><cc:Work
       rdf:about=""><dc:format>image/svg+xml</dc:format><dc:type
         rdf:resource="http://purl.org/dc/dcmitype/StillImage" /></cc:Work></rdf:RDF></metadata><defs
   id="defs127" /><sodipodi:namedview
   pagecolor="#ffffff"
   bordercolor="#666666"
   borderopacity="1"
   objecttolerance="10"
   gridtolerance="10"
   guidetolerance="10"
   inkscape:pageopacity="0"
   inkscape:pageshadow="2"
   inkscape:window-width="1600"
   inkscape:window-height="836"
   id="namedview125"
   showgrid="false"
   fit-margin-top="0"
   fit-margin-left="0"
   fit-margin-right="0"
   fit-margin-bottom="0"
   inkscape:zoom="6.2644365"
   inkscape:cx="64.96993"
   inkscape:cy="28.334552"
   inkscape:window-x="0"
   inkscape:window-y="25"
   inkscape:window-maximized="1"
   inkscape:current-layer="Capa_1"
   inkscape:showpageshadow="2"
   inkscape:pagecheckerboard="0"
   inkscape:deskcolor="#d1d1d1" />
<path
   id="path3"
   style="fill:#00529f"
   d="m 207.06798,-15.906422 c -0.0156,-0.01012 -0.0175,0.05381 0.0278,0.250566 0.005,0.02333 0.0115,0.03524 0.0167,0.05568 0.0263,-0.135069 -0.0225,-0.291968 -0.0445,-0.306248 z m 0.48443,14.8947736 c -0.81017,0.00265 -1.61764,0.00252 -2.42771,0.0167045 -0.9262,0.0166253 -1.85357,0.0412613 -2.7785,0.0946584 -0.96039,0.063208 -1.91869,0.15974491 -2.87316,0.28397512 -0.0116,0.001504 -0.0219,0.004133 -0.0334,0.005568 v 0.81294839 c -0.47,0.151 -0.96329,0.30624768 -0.96329,0.30624768 -2.156,0.82400014 -4.07723,2.17558464 -5.65723,3.84758454 -0.83,-0.229 -1.6648,-0.4231786 -2.5168,-0.4231786 -3.308,0 -6.30953,1.7881701 -8.05153,4.5491701 -1.691,-1.343 -3.74464,-2.1047568 -5.93564,-2.1047568 -4.065,0 -7.58329,2.6807714 -8.93129,6.436769 -1.446,-0.832 -3.02365,-1.37533 -4.71065,-1.37533 -5.264,0 -9.5399,4.257382 -9.5939,9.510382 -1.138,-0.457 -2.32134,-0.773971 -3.54134,-0.773971 -5.299,0 -9.61061,4.312609 -9.61061,9.610609 0,0.689 0.10157,1.366939 0.25057,2.037939 -0.291,-0.034 -0.67932,-0.07795 -0.67932,-0.07795 -2.34,0 -4.56927,0.905414 -6.31427,2.444414 -1.815,-2.236 -4.46835,-3.597019 -7.38335,-3.597019 -4.094,0 -7.619,2.704451 -8.948,6.492451 -1.394,-0.748 -2.90049,-1.236127 -4.49349,-1.236127 -5.287,0 -9.58247,4.297769 -9.59947,9.582769 -0.938,-0.3 -1.89985,-0.506701 -2.889867,-0.506701 -5.298,0 -9.605041,4.308041 -9.605041,9.605041 0,0.845 0.141361,1.668254 0.356361,2.472254 -0.308,-0.03 -0.613743,-0.128067 -0.918743,-0.128067 -5.297,0 -9.605041,4.30804 -9.605041,9.60504 0,1.45 0.420242,2.826856 1.041242,4.114856 -4.309,0.993 -7.433466,4.774497 -7.433466,9.315497 0,2.403 0.918094,4.641225 2.500094,6.392225 -3.58,1.437 -6.046999,4.957591 -6.046999,8.914591 0,1.417 0.383992,2.787177 0.979992,4.059174 -1.776,1.356995 -2.992997,3.269025 -3.390997,5.518025 -0.099,0.56 -0.15034,1.12415 -0.15034,1.68715 0,2.006 0.72044,3.97116 1.91544,5.77416 -1.277,1.32 -1.976689,2.9901 -1.976689,4.9111 0,0.048 -0.001,0.0958 0,0.14477 0.065,3.753 2.579827,7.40013 4.888827,9.20413 4.331,3.384 9.044991,3.84829 13.073991,1.45329 3.792,2.709 8.526288,3.69209 13.057288,2.74509 -0.045,0.289 -0.194885,0.56093 -0.194885,0.85193 0,0.847 0.188382,1.69696 0.562382,2.48896 0.675,1.447 1.843771,2.53647 3.290771,3.06247 0.904,0.328 1.86021,0.3843 2.79521,0.2283 -0.095,0.157 -0.17643,0.32513 -0.23943,0.50113 -0.278,0.771 -0.2191,1.66612 0.1559,2.46112 0.35,0.745 0.96426,1.31348 1.73726,1.59248 0.206,0.075 0.4182,0.1055 0.6292,0.1225 l -1.34749,5.50689 c -0.067,0.275 0.0537,0.55802 0.30068,0.69602 l 5.53473,3.07918 c -0.475,0.601 -0.7517,1.3459 -0.7517,2.1159 0,0.478 0.0998,0.95887 0.31182,1.41987 0.839,1.769 2.72113,2.51126 4.38213,1.73726 27.567,-13.008 57.22878,-19.59985 88.15478,-19.59985 30.928,0 60.58322,6.59385 88.14922,19.59985 1.672,0.78 3.55156,0.0343 4.37656,-1.73169 0.217,-0.464 0.32295,-0.95458 0.32295,-1.43658 0,-0.768 -0.2737,-1.50476 -0.7517,-2.10476 l 5.5236,-3.07918 c 0.246,-0.137 0.37225,-0.42202 0.30625,-0.69602 l -1.34749,-5.53473 c 1,-0.121 1.91559,-0.70414 2.37759,-1.68714 0.215,-0.458 0.32295,-0.94802 0.32295,-1.43102 0,-0.353 -0.0556,-0.70053 -0.17261,-1.02453 -0.086,-0.237 -0.20979,-0.44948 -0.35079,-0.65148 2.505,0.425 5.06991,-0.73799 6.20291,-3.14599 0.369,-0.787 0.55681,-1.63483 0.55681,-2.47783 0,-0.296 -0.15345,-0.56906 -0.20045,-0.86306 4.531,0.947 9.26785,-0.0371 13.06285,-2.74509 4.025,2.393 8.74099,1.93328 13.07399,-1.44772 2.308,-1.804 4.82383,-5.4567 4.88883,-9.2097 10e-4,-0.048 0,-0.0968 0,-0.14477 0.002,-1.921 -0.70426,-3.58453 -1.98226,-4.90553 1.195,-1.803 1.91544,-3.77373 1.91544,-5.77973 0,-0.564 -0.0513,-1.12615 -0.15034,-1.68715 -0.398,-2.248 -1.61299,-4.15646 -3.39099,-5.512457 0.602,-1.271997 0.98556,-2.641174 0.98556,-4.059174 0,-3.958 -2.464,-7.479591 -6.047,-8.914591 1.584,-1.75 2.50009,-3.988225 2.50009,-6.392225 0,-4.542 -3.1199,-8.329065 -7.4279,-9.321065 0.616,-1.291 1.03011,-2.662287 1.03011,-4.109287 0,-5.297 -4.31004,-9.610609 -9.60504,-9.610609 -0.306,0 -0.61074,0.09707 -0.91874,0.128067 0.218,-0.805 0.36193,-1.623686 0.36193,-2.466686 0,-5.298 -4.30548,-9.610609 -9.59948,-9.610609 -0.989,0 -1.95743,0.206701 -2.89543,0.506701 -0.016,-5.286 -4.31504,-9.577201 -9.60504,-9.577201 -1.595,0 -3.09935,0.489127 -4.48235,1.236127 -1.342,-3.788 -4.868,-6.492451 -8.948,-6.492451 -2.912,0 -5.57249,1.361019 -7.39449,3.597019 -1.74,-1.54 -3.96927,-2.449982 -6.31427,-2.449982 0,0 -0.38118,0.04295 -0.66818,0.07795 0.147,-0.668 0.23943,-1.344939 0.23943,-2.037939 0,-5.299 -4.31261,-9.610609 -9.61061,-9.610609 -1.223,0 -2.40077,0.32254 -3.53577,0.77954 -0.026,-2.53 -1.01634,-4.906472 -2.80634,-6.698472 -1.814,-1.815 -4.22613,-2.817479 -6.79313,-2.817479 -1.681,0 -3.26065,0.54233 -4.71065,1.37533 -1.347,-3.7569976 -4.85873,-6.436769 -8.92573,-6.436769 -2.193,0 -4.2492,0.7683249 -5.9412,2.1103249 -1.743,-2.761 -4.73896,-4.5547382 -8.04596,-4.5547382 -0.853,0 -1.69137,0.1951786 -2.52237,0.4231786 -1.576,-1.6699999 -3.49466,-3.0225844 -5.65166,-3.84758454 0,0 -0.50529,-0.15924768 -0.96329,-0.30624768 V -1.0116484 c -0.25419,8.176e-4 -0.50834,-7.098e-4 -0.76283,0 z M 190.83685,26.795641 c 1.47806,-0.03258 2.98821,-0.005 4.5269,0.08352 0.005,1.581 0.48308,3.090239 1.31408,4.432239 v 6.61495 c -0.836,1.35 -1.31965,2.87108 -1.31965,4.46008 0,1.591 0.48365,3.114648 1.31965,4.465648 v 4.1594 c -15.288,-2.203 -34.8788,-0.736531 -50.1578,7.188469 6.84656,-17.131875 22.14587,-30.915676 44.31682,-31.404308 z m 26.08117,0 c 22.17084,0.489346 37.46469,14.272433 44.31125,31.404308 -15.279,-7.925 -34.86623,-9.391469 -50.15223,-7.188469 v -4.1594 c 0.833,-1.346 1.31965,-2.868648 1.31965,-4.465648 0,-1.596 -0.48665,-3.11608 -1.31965,-4.46008 v -6.61495 c 0.828,-1.336 1.30908,-2.844239 1.31408,-4.432239 1.53869,-0.0885 3.04884,-0.116155 4.5269,-0.08352 z m -93.68395,28.631374 c 0.135,2.178 0.98684,4.194434 2.43884,5.796434 -3.59,1.433 -6.05813,4.963296 -6.05813,8.931296 0,0.216 0.0351,0.421768 0.0501,0.634768 -4.672,1.038 -9.99682,2.430559 -14.32682,4.131559 -3.084,1.214 -5.64715,2.734763 -7.73415,4.270763 4.68802,-9.978 12.62515,-16.99882 25.63015,-23.76482 z m 161.28673,0 c 13.004,6.767 20.94315,13.78582 25.63015,23.76482 -2.087,-1.536 -4.65115,-3.056763 -7.73415,-4.270763 -4.337,-1.703 -9.65625,-3.094559 -14.32125,-4.131559 0.014,-0.213 0.0501,-0.418768 0.0501,-0.634768 0,-3.966 -2.47271,-7.498296 -6.06371,-8.931296 1.451,-1.602 2.30285,-3.615434 2.43885,-5.796434 z" />
<path
   d="m 313.01029,121.98314 c -1.408,0.08 -2.814,-0.169 -4.067,-0.86 -2.443,-1.346 -3.933,-3.898 -3.933,-6.643 0,-0.175 0.015,-0.352 0.026,-0.528 0.896,-1.086 1.563,-2.312 1.918,-3.688 0.208,-0.804 0.312,-1.618 0.312,-2.427 0,-1.699 -0.455,-3.374 -1.342,-4.877 -1.313,-2.225 -3.415,-3.803997 -5.92,-4.446994 -5.146,-1.327 -10.418,1.787994 -11.755,6.943994 -0.002,0.009 -0.148,1.04 -0.229,1.616 -1.868,2.354 -4.91,3.406 -7.831,2.656 -3.258,-0.839 -5.462,-3.682 -5.624,-6.957 6.893,1.341 11.112,-1.236 12.829,-7.927994 0.358,-1.392 0.537,-2.679 0.537,-3.863 0,-3.609 -1.729,-6.245 -5.096,-8.054 0.002,-0.109 0.011,-0.222 0.011,-0.33 0,-1.356 -0.273,-2.559 -0.693,-3.668 2.95,-1.226 5.123,-3.815 5.771,-6.891 4.592,1.023 9.797,2.39 14.033,4.053 3.937,1.549 7.004,3.638 9.274,5.58 2.351,5.904 3.714,12.818 4.411,21.230994 -2.36,1.016 -4.274,3.271 -5.648,6.855 -0.687,1.81 -1.031,3.468 -1.031,4.981 0,2.964 1.387,5.346 4.047,7.245 z"
   id="path5"
   inkscape:connector-curvature="0"
   style="fill:#ee324e" />
<path
   d="m 258.34929,98.605146 c -1.727,2.783994 -5.001,4.221994 -8.259,3.382994 -3.229,-0.829 -5.527,-3.717994 -5.662,-7.043994 0.726,-1.374 1.146,-2.896 1.146,-4.461 0,-5.323 -4.329,-9.654 -9.65,-9.654 -5.324,0 -9.655,4.331 -9.655,9.654 0,0.801 0.154,1.582 0.354,2.349 -1.019,3.158 -3.888,5.281 -7.211,5.281 -3.362,0 -6.144,-2.227 -7.114,-5.354 6.951,-0.438 10.385,-3.972 10.385,-10.854 0,-5.855 -2.459,-9.266 -7.455,-10.455 -0.826,-3.489 -2.877,-5.78 -6.07,-6.894 1.999,-1.592 3.238,-4.002 3.238,-6.63 0,-1.6 -0.484,-3.121 -1.317,-4.462 0,-0.09 0,-0.553 0,-1.191 15.51,-2.273 35.576,-0.728 50.825,7.688 1.513,4.186 2.538,8.544 3.036,12.941 -1.727,0.859 -3.127,2.292 -4.177,4.284 -5.128,-0.085 -8.34,2.63 -9.799,8.294 -0.356,1.387 -0.536,2.671 -0.536,3.855 -0.001,4.521 2.642,7.564 7.921,9.27 z"
   id="path7"
   inkscape:connector-curvature="0"
   style="fill:#ee324e" />
<path
   d="m 198.59529,64.556146 c -3.193,1.113 -5.244,3.406 -6.07,6.894 -4.998,1.189 -7.457,4.6 -7.457,10.455 0,6.882 3.434,10.415 10.392,10.854 -0.977,3.127 -3.76,5.354 -7.122,5.354 -3.274,0 -6.204,-2.171 -7.202,-5.281 0.196,-0.772 0.346,-1.556 0.346,-2.349 0,-2.58 -1.004,-5.004 -2.827,-6.827 -1.823,-1.824 -4.247,-2.828 -6.827,-2.828 -5.325,0 -9.656,4.331 -9.656,9.654 0,1.547 0.424,3.071 1.153,4.461 -0.132,3.326 -2.432,6.213994 -5.665,7.043994 -3.258,0.84 -6.532,-0.599 -8.255,-3.382994 5.28,-1.706 7.922,-4.749 7.922,-9.271 0,-1.184 -0.179,-2.468 -0.535,-3.854 -1.461,-5.664 -4.672,-8.379 -9.8,-8.294 -1.044,-1.99 -2.447,-3.422 -4.181,-4.285 0.499,-4.396 1.524,-8.754 3.036,-12.939 15.25,-8.417 35.317,-9.961 50.829,-7.688 0,0.638 0,1.101 0,1.191 -0.836,1.347 -1.319,2.869 -1.319,4.462 0.001,2.628 1.239,5.037 3.238,6.63 z"
   id="path9"
   inkscape:connector-curvature="0"
   style="fill:#ee324e" />
<path
   d="m 124.91929,82.927146 c -3.365,1.807 -5.091,4.441 -5.091,8.051 0,1.186 0.18,2.474 0.538,3.866 1.714,6.694994 5.933,9.271994 12.823,7.927994 -0.155,3.274 -2.361,6.117 -5.628,6.957 -2.919,0.75 -5.965,-0.303 -7.827,-2.656 -0.072,-0.503 -0.229,-1.604 -0.229,-1.604 -1.333,-5.168 -6.606,-8.283994 -11.758,-6.955994 -2.499,0.641997 -4.598,2.218994 -5.911,4.440994 -0.889,1.505 -1.34401,3.185 -1.34401,4.887 0,0.807 0.102,1.62 0.30901,2.421 0.351,1.373 1.019,2.599 1.918,3.689 0.012,0.173 0.025,0.346 0.025,0.518 0,2.751 -1.488,5.308 -3.929019,6.652 -1.254,0.69 -2.662,0.939 -4.067,0.861 2.658,-1.898 4.044,-4.28 4.044,-7.241 0,-1.514 -0.345,-3.172 -1.033,-4.982 -1.364,-3.584 -3.28,-5.84 -5.652,-6.858 0.697,-8.410994 2.061,-15.323994 4.411,-21.226994 2.271,-1.943 5.337019,-4.034 9.276019,-5.584 4.229,-1.661 9.44,-3.029 14.038,-4.053 0.648,3.076 2.819,5.666 5.769,6.892 -0.421,1.115 -0.693,2.319 -0.693,3.669 0,0.108 0.009,0.22 0.011,0.329 z"
   id="path11"
   inkscape:connector-curvature="0"
   style="fill:#ee324e" />
<path
   d="m 286.98029,118.38314 c 1.935,-0.513 3.761,-1.331 5.415,-2.449 0.87,0.564 1.798,1.018 2.807,1.275 0.002,0 0.306,0.055 0.611,0.111 0.438,1.915 1.214,3.766 2.268,5.466 -3.671,-1.563 -7.376,-3.032 -11.101,-4.403 z"
   id="path13"
   inkscape:connector-curvature="0"
   style="fill:#ee324e" />
<path
   d="m 203.87629,103.59514 c 0,0 -2.912,0.054 -5.49,0.102 2.504,-1.907 4.4,-4.445997 5.49,-7.386994 1.091,2.939997 2.986,5.478994 5.491,7.386994 -2.578,-0.049 -5.491,-0.102 -5.491,-0.102 z"
   id="path15"
   inkscape:connector-curvature="0"
   style="fill:#ee324e" />
<path
   d="m 109.67529,122.78514 c 1.056,-1.7 1.831,-3.552 2.264,-5.465 0.308,-0.056 0.615,-0.112 0.615,-0.112 1.003,-0.256 1.934,-0.71 2.809,-1.275 1.635,1.104 3.478,1.927 5.421,2.445 -3.736,1.376 -7.442,2.846 -11.109,4.407 z"
   id="path17"
   inkscape:connector-curvature="0"
   style="fill:#ee324e" />
<path
   d="m 138.82829,112.53214 c 1.896,-2.455 2.988,-5.394 3.301,-8.473 1.775,2.576 4.227,4.573 7.109,5.809 -3.513,0.814 -6.985,1.704 -10.41,2.664 z"
   id="path19"
   inkscape:connector-curvature="0"
   style="fill:#ee324e" />
<path
   d="m 167.75129,106.33414 c 1.85,-1.764 3.294,-3.888 4.232,-6.225 0.674,-0.011 1.333,-0.143997 1.989,-0.291997 1.497,2.053997 3.445,3.766997 5.699,5.024997 -3.976,0.398 -7.953,0.895 -11.92,1.492 z"
   id="path21"
   inkscape:connector-curvature="0"
   style="fill:#ee324e" />
<path
   d="m 228.08029,104.84214 c 2.253,-1.257 4.204,-2.97 5.707,-5.024997 0.65,0.148 1.306,0.280997 1.981,0.291997 0.941,2.339 2.386,4.463 4.234,6.225 -3.965,-0.596 -7.943,-1.094 -11.922,-1.492 z"
   id="path23"
   inkscape:connector-curvature="0"
   style="fill:#ee324e" />
<path
   d="m 258.51629,109.86714 c 2.884,-1.236 5.335,-3.233 7.108,-5.809 0.315,3.079 1.409,6.018 3.305,8.474 -3.425,-0.96 -6.899,-1.85 -10.413,-2.665 z"
   id="path25"
   inkscape:connector-curvature="0"
   style="fill:#ee324e" />
<path
   d="m 186.02429,13.538146 c 0,-2.354 1.918,-4.27 4.276,-4.27 2.354,0 4.271,1.915 4.271,4.27 0,2.355 -1.916,4.271 -4.271,4.271 -2.357,0 -4.276,-1.916 -4.276,-4.271 z"
   id="path27"
   inkscape:connector-curvature="0"
   style="fill:#ffffff" />
<path
   d="m 199.60529,26.851146 c 0,-2.356 1.916,-4.272 4.271,-4.272 2.355,0 4.271,1.917 4.271,4.272 0,2.354 -1.916,4.269 -4.271,4.269 -2.355,0 -4.271,-1.915 -4.271,-4.269 z"
   id="path29"
   inkscape:connector-curvature="0"
   style="fill:#ffffff" />
<path
   d="m 199.60529,42.386146 c 0,-2.355 1.916,-4.271 4.271,-4.271 2.355,0 4.271,1.917 4.271,4.271 0,2.357 -1.916,4.274 -4.271,4.274 -2.355,0 -4.271,-1.917 -4.271,-4.274 z"
   id="path31"
   inkscape:connector-curvature="0"
   style="fill:#ffffff" />
<path
   d="m 199.60529,57.925146 c 0,-2.354 1.916,-4.269 4.271,-4.269 2.355,0 4.271,1.915 4.271,4.269 0,2.354 -1.916,4.269 -4.271,4.269 -2.355,0 -4.271,-1.915 -4.271,-4.269 z"
   id="path33"
   inkscape:connector-curvature="0"
   style="fill:#ffffff" />
<path
   d="m 172.04629,15.983146 c 0,-1.141 0.444,-2.213 1.251,-3.019 0.807,-0.806 1.877,-1.25 3.016,-1.25 2.354,0 4.27,1.915 4.27,4.269 0,2.353 -1.915,4.268 -4.27,4.268 -2.353,0 -4.267,-1.915 -4.267,-4.268 z"
   id="path35"
   inkscape:connector-curvature="0"
   style="fill:#ffffff" />
<path
   d="m 158.40429,21.048146 c 0,-2.355 1.916,-4.271 4.271,-4.271 2.354,0 4.269,1.917 4.269,4.271 0,2.353 -1.915,4.268 -4.269,4.268 -2.355,-0.001 -4.271,-1.915 -4.271,-4.268 z"
   id="path37"
   inkscape:connector-curvature="0"
   style="fill:#ffffff" />
<path
   d="m 145.26629,29.786146 c 0,-2.355 1.917,-4.271 4.273,-4.271 1.138,0 2.209,0.445 3.015,1.251 0.807,0.807 1.25,1.879 1.25,3.02 0,2.355 -1.914,4.271 -4.266,4.271 -2.355,0 -4.272,-1.916 -4.272,-4.271 z"
   id="path39"
   inkscape:connector-curvature="0"
   style="fill:#ffffff" />
<path
   d="m 135.23429,41.354146 c 0,-2.355 1.914,-4.272 4.265,-4.272 2.355,0 4.272,1.917 4.272,4.272 0,2.352 -1.917,4.265 -4.272,4.265 -2.352,0 -4.265,-1.914 -4.265,-4.265 z"
   id="path41"
   inkscape:connector-curvature="0"
   style="fill:#ffffff" />
<path
   d="m 121.52729,40.202146 c 0,-2.352 1.917,-4.265 4.274,-4.265 1.139,0 2.21,0.444 3.016,1.25 0.806,0.805 1.25,1.876 1.25,3.016 0,2.357 -1.914,4.275 -4.266,4.275 -2.357,-0.001 -4.274,-1.919 -4.274,-4.276 z"
   id="path43"
   inkscape:connector-curvature="0"
   style="fill:#ffffff" />
<path
   d="m 108.08829,45.462146 c 0,-2.355 1.917,-4.272 4.274,-4.272 2.352,0 4.265,1.917 4.265,4.272 0,2.354 -1.914,4.271 -4.265,4.271 -2.357,-10e-4 -4.274,-1.917 -4.274,-4.271 z"
   id="path45"
   inkscape:connector-curvature="0"
   style="fill:#ffffff" />
<path
   d="m 95.597271,54.534146 c 0,-2.354 1.917,-4.27 4.275,-4.27 2.351019,0 4.265019,1.916 4.265019,4.27 0,2.355 -1.914,4.272 -4.265019,4.272 -2.357,0 -4.275,-1.917 -4.275,-4.272 z"
   id="path47"
   inkscape:connector-curvature="0"
   style="fill:#ffffff" />
<path
   d="m 85.439271,66.483146 c 0,-2.356 1.914,-4.273 4.265,-4.273 2.356,0 4.274,1.917 4.274,4.273 0,2.354 -1.918,4.27 -4.274,4.27 -2.352,-0.001 -4.265,-1.916 -4.265,-4.27 z"
   id="path49"
   inkscape:connector-curvature="0"
   style="fill:#ffffff" />
<path
   d="m 79.041271,79.913146 c 0,-2.352 1.917,-4.266 4.274,-4.266 2.355,0 4.271,1.914 4.271,4.266 0,2.357 -1.917,4.276 -4.271,4.276 -2.357,0 -4.274,-1.918 -4.274,-4.276 z"
   id="path51"
   inkscape:connector-curvature="0"
   style="fill:#ffffff" />
<path
   d="m 75.496271,95.222146 c 0,-2.352 1.917,-4.265 4.271,-4.265 2.354,0 4.269,1.913 4.269,4.265 0,2.355 -1.915,4.271997 -4.269,4.271997 -2.355,0 -4.271,-1.916997 -4.271,-4.271997 z"
   id="path53"
   inkscape:connector-curvature="0"
   style="fill:#ffffff" />
<path
   d="m 128.50529,54.835146 c 0,-1.14 0.445,-2.213 1.253,-3.021 0.808,-0.807 1.879,-1.252 3.017,-1.252 2.354,0 4.269,1.917 4.269,4.273 0,2.354 -1.915,4.27 -4.269,4.27 -2.354,-10e-4 -4.27,-1.916 -4.27,-4.27 z"
   id="path55"
   inkscape:connector-curvature="0"
   style="fill:#ffffff" />
<path
   d="m 124.95429,70.152146 c 0,-2.354 1.914,-4.269 4.265,-4.269 2.355,0 4.271,1.916 4.271,4.269 0,2.354 -1.917,4.27 -4.271,4.27 -2.352,0 -4.265,-1.915 -4.265,-4.27 z"
   id="path57"
   inkscape:connector-curvature="0"
   style="fill:#ffffff" />
<path
   d="m 196.19729,80.123146 c 0,-4.235 3.444,-7.681 7.679,-7.681 4.235,0 7.681,3.446 7.681,7.681 0,4.235 -3.445,7.682 -7.681,7.682 -4.234,0 -7.679,-3.447 -7.679,-7.682 z"
   id="path59"
   inkscape:connector-curvature="0"
   style="fill:#ffffff" />
<path
   d="m 134.22629,95.054146 c -1.768,-1.043 -3.023,-2.714 -3.535,-4.704 -1.052,-4.103 1.429,-8.298 5.531,-9.351 4.101,-1.055 8.297,1.425 9.354,5.529 l 0,0 c 1.056,4.097 -1.423,8.291 -5.525,9.349 -1.99,0.512 -4.058,0.22 -5.825,-0.823 z"
   id="path61"
   inkscape:connector-curvature="0"
   style="fill:#ffffff" />
<path
   d="m 74.685271,118.91114 c -2.038,-3.709 -0.682,-8.391 3.027,-10.434 1.8,-0.991 3.879,-1.22 5.852,-0.647 1.969,0.573 3.598,1.878 4.584,3.674 0,10e-4 0,10e-4 0,10e-4 2.042,3.707 0.685,8.386 -3.024,10.431 -3.708,2.041 -8.391,0.684 -10.439,-3.025 z"
   id="path63"
   inkscape:connector-curvature="0"
   style="fill:#ffffff" />
<path
   d="m 213.19029,13.538146 c 0,-1.141 0.444,-2.214 1.249,-3.021 0.805,-0.805 1.874,-1.249 3.013,-1.249 2.357,0 4.275,1.915 4.275,4.27 0,2.355 -1.918,4.271 -4.275,4.271 -2.351,0 -4.262,-1.916 -4.262,-4.271 z"
   id="path65"
   inkscape:connector-curvature="0"
   style="fill:#ffffff" />
<path
   d="m 227.17629,15.983146 c 0,-2.354 1.911,-4.269 4.263,-4.269 2.355,0 4.273,1.915 4.273,4.269 0,2.353 -1.918,4.268 -4.273,4.268 -2.352,0 -4.263,-1.915 -4.263,-4.268 z"
   id="path67"
   inkscape:connector-curvature="0"
   style="fill:#ffffff" />
<path
   d="m 240.80929,21.048146 c 0,-2.355 1.915,-4.271 4.268,-4.271 2.356,0 4.273,1.917 4.273,4.271 0,2.353 -1.917,4.268 -4.273,4.268 -2.353,-0.001 -4.268,-1.915 -4.268,-4.268 z"
   id="path69"
   inkscape:connector-curvature="0"
   style="fill:#ffffff" />
<path
   d="m 253.94629,29.786146 c 0,-2.355 1.915,-4.271 4.268,-4.271 2.356,0 4.272,1.917 4.272,4.271 0,2.355 -1.916,4.271 -4.272,4.271 -2.353,0 -4.268,-1.916 -4.268,-4.271 z"
   id="path71"
   inkscape:connector-curvature="0"
   style="fill:#ffffff" />
<path
   d="m 263.98229,41.354146 c 0,-2.355 1.915,-4.272 4.271,-4.272 1.14,0 2.21,0.444 3.017,1.25 0.806,0.806 1.251,1.88 1.251,3.022 0,2.352 -1.915,4.265 -4.268,4.265 -2.356,0 -4.271,-1.914 -4.271,-4.265 z"
   id="path73"
   inkscape:connector-curvature="0"
   style="fill:#ffffff" />
<path
   d="m 277.68529,40.202146 c 0,-2.352 1.918,-4.265 4.274,-4.265 2.353,0 4.268,1.914 4.268,4.265 0,2.357 -1.915,4.275 -4.268,4.275 -2.356,0 -4.274,-1.918 -4.274,-4.275 z"
   id="path75"
   inkscape:connector-curvature="0"
   style="fill:#ffffff" />
<path
   d="m 291.12429,45.462146 c 0,-2.355 1.913,-4.272 4.265,-4.272 2.357,0 4.275,1.917 4.275,4.272 0,2.354 -1.918,4.271 -4.275,4.271 -2.352,-10e-4 -4.265,-1.917 -4.265,-4.271 z"
   id="path77"
   inkscape:connector-curvature="0"
   style="fill:#ffffff" />
<path
   d="m 303.61429,54.534146 c 0,-2.354 1.917,-4.27 4.273,-4.27 2.353,0 4.266,1.916 4.266,4.27 0,2.355 -1.913,4.272 -4.266,4.272 -2.356,0 -4.273,-1.917 -4.273,-4.272 z"
   id="path79"
   inkscape:connector-curvature="0"
   style="fill:#ffffff" />
<path
   d="m 313.77629,66.483146 c 0,-2.356 1.917,-4.273 4.272,-4.273 2.354,0 4.271,1.917 4.271,4.273 0,2.354 -1.917,4.27 -4.271,4.27 -2.355,-0.001 -4.272,-1.916 -4.272,-4.27 z"
   id="path81"
   inkscape:connector-curvature="0"
   style="fill:#ffffff" />
<path
   d="m 320.17529,79.913146 c 0,-2.352 1.914,-4.266 4.268,-4.266 2.354,0 4.271,1.914 4.271,4.266 0,2.357 -1.916,4.276 -4.271,4.276 -2.354,0 -4.268,-1.918 -4.268,-4.276 z"
   id="path83"
   inkscape:connector-curvature="0"
   style="fill:#ffffff" />
<path
   d="m 323.71629,95.222146 c 0,-2.352 1.918,-4.265 4.275,-4.265 2.352,0 4.264,1.913 4.264,4.265 0,2.355 -1.912,4.271997 -4.264,4.271997 -2.357,0 -4.275,-1.916997 -4.275,-4.271997 z"
   id="path85"
   inkscape:connector-curvature="0"
   style="fill:#ffffff" />
<path
   d="m 270.70729,54.835146 c 0,-2.356 1.916,-4.273 4.271,-4.273 2.355,0 4.269,1.917 4.269,4.273 0,2.354 -1.914,4.27 -4.269,4.27 -2.355,0 -4.271,-1.916 -4.271,-4.27 z"
   id="path87"
   inkscape:connector-curvature="0"
   style="fill:#ffffff" />
<path
   d="m 274.25929,70.152146 c 0,-2.354 1.916,-4.269 4.273,-4.269 2.354,0 4.271,1.916 4.271,4.269 0,2.354 -1.916,4.27 -4.271,4.27 -2.357,0 -4.273,-1.915 -4.273,-4.27 z"
   id="path89"
   inkscape:connector-curvature="0"
   style="fill:#ffffff" />
<path
   d="m 267.70829,95.877146 c -1.989,-0.512 -3.658,-1.766 -4.7,-3.532 -1.042,-1.764 -1.335,-3.831 -0.823,-5.816 v -10e-4 c 0.509,-1.987 1.761,-3.656 3.524,-4.7 1.767,-1.046 3.836,-1.34 5.824,-0.829 1.988,0.511 3.658,1.765 4.701,3.532 1.044,1.766 1.337,3.832 0.825,5.819 -0.513,1.991 -1.766,3.663 -3.532,4.706 -1.765,1.041 -3.831,1.333 -5.819,0.821 z"
   id="path91"
   inkscape:connector-curvature="0"
   style="fill:#ffffff" />
<path
   d="m 322.63029,121.93714 c -1.801,-0.993 -3.107,-2.627 -3.677,-4.601 -0.567,-1.967 -0.335,-4.037 0.654,-5.829 0,0 0.001,-0.001 0.001,-0.002 0.985,-1.797 2.614,-3.102 4.586,-3.675 1.973,-0.573 4.048,-0.343 5.845,0.647 1.798,0.987 3.103,2.614 3.675,4.582 0.573,1.972 0.345,4.051 -0.646,5.854 -2.043,3.709 -6.727,5.066 -10.438,3.024 z"
   id="path93"
   inkscape:connector-curvature="0"
   style="fill:#ffffff" />
<path
   d="m 172.12929,126.67214 c 0,-1.139 0.445,-2.212 1.253,-3.019 0.807,-0.807 1.878,-1.252 3.017,-1.252 2.358,0 4.276,1.916 4.276,4.271 0,2.355 -1.918,4.272 -4.276,4.272 -2.354,0 -4.27,-1.916 -4.27,-4.272 z"
   id="path95"
   inkscape:connector-curvature="0"
   style="fill:#ffffff" />
<path
   d="m 119.16129,140.98814 c 0,-1.141 0.444,-2.214 1.251,-3.021 0.806,-0.806 1.877,-1.25 3.015,-1.25 2.357,0 4.274,1.917 4.274,4.272 0,2.356 -1.917,4.273 -4.274,4.273 -2.353,0 -4.266,-1.917 -4.266,-4.274 z"
   id="path97"
   inkscape:connector-curvature="0"
   style="fill:#ffffff" />
<path
   d="m 203.87629,120.19114 c 0.382,0.142 11.163,4.16 13.668,5.093 -2.505,0.935 -13.286,4.954 -13.668,5.097 -0.382,-0.143 -11.159,-4.163 -13.664,-5.097 2.505,-0.934 13.282,-4.951 13.664,-5.093 z"
   id="path99"
   inkscape:connector-curvature="0"
   style="fill:#ee324e" />
<path
   d="m 108.65529,141.74114 c 0.989,0.363 4.931,1.813 5.745,2.112 -0.217,0.848 -1.371,5.363 -1.672,6.542 -1.053,-0.585 -4.8,-2.671 -5.449,-3.032 0.176,-0.72 1.126,-4.602 1.376,-5.622 z"
   id="path101"
   inkscape:connector-curvature="0"
   style="fill:#ee324e" />
<path
   d="m 227.08529,126.67214 c 0,-2.355 1.914,-4.271 4.266,-4.271 2.358,0 4.279,1.916 4.279,4.271 0,2.355 -1.921,4.272 -4.279,4.272 -2.352,0 -4.266,-1.916 -4.266,-4.272 z"
   id="path103"
   inkscape:connector-curvature="0"
   style="fill:#ffffff" />
<path
   d="m 280.05929,140.98814 c 0,-2.355 1.913,-4.272 4.266,-4.272 2.352,0 4.266,1.917 4.266,4.272 0,2.356 -1.914,4.273 -4.266,4.273 -2.353,10e-4 -4.266,-1.916 -4.266,-4.273 z"
   id="path105"
   inkscape:connector-curvature="0"
   style="fill:#ffffff" />
<path
   d="m 300.71429,137.93714 c 0,0 0,-0.001 0,0 -30.396,-14.323 -62.977,-21.586 -96.838,-21.586 -33.862,0 -66.442,7.263 -96.839,21.586 -0.248,0.116 -0.418,0.3 -0.507,0.545 -0.11,0.307 -0.08,0.683 0.086,1.035 0.139,0.295 0.382,0.518 0.685,0.627 0.302,0.109 0.628,0.093 0.92,-0.044 0.225,-0.105 0.483,-0.117 0.717,-0.032 0.234,0.084 0.424,0.259 0.529,0.485 l 0.083,0.18 5.813,2.137 c 0.302,0.111 0.472,0.433 0.392,0.745 l -1.726,6.752 0.194,0.417 c 0.217,0.467 0.016,1.021 -0.45,1.24 -0.757,0.357 -1.085,1.27 -0.737,2.027 0.335,0.7 1.09,1.21 1.894,0.835 27.815,-13.124 57.741,-19.778 88.945,-19.778 31.205,0 61.133,6.654 88.946,19.777 0.809,0.377 1.563,-0.131 1.889,-0.83 0.357,-0.761 0.028,-1.672 -0.733,-2.031 -0.465,-0.217 -0.666,-0.773 -0.448,-1.24 l 0.195,-0.42 -1.727,-6.749 c -0.08,-0.313 0.09,-0.634 0.392,-0.745 l 5.811,-2.135 0.084,-0.182 c 0.104,-0.226 0.295,-0.4 0.528,-0.485 0.233,-0.085 0.491,-0.073 0.717,0.032 0.605,0.285 1.33,0.022 1.614,-0.584 0.163,-0.347 0.193,-0.721 0.082,-1.028 -0.088,-0.248 -0.26,-0.433 -0.511,-0.551 z m -177.288,8.58 c -3.045,0 -5.521,-2.48 -5.521,-5.529 0,-1.477 0.575,-2.865 1.619,-3.91 1.043,-1.044 2.429,-1.618 3.903,-1.618 3.049,0 5.53,2.479 5.53,5.528 0,3.049 -2.481,5.529 -5.531,5.529 z m 41.498,-17.731 -13.529,9.441 c -0.124,0.086 -0.275,0.125 -0.426,0.109 l -16.417,-1.734 c -0.261,-0.027 -0.478,-0.214 -0.543,-0.468 -0.065,-0.254 0.034,-0.522 0.25,-0.672 l 13.537,-9.436 c 0.124,-0.086 0.275,-0.125 0.425,-0.109 l 16.409,1.728 c 0.261,0.027 0.477,0.214 0.542,0.468 0.065,0.254 -0.033,0.524 -0.248,0.673 z m 11.475,3.414 c -3.047,0 -5.525,-2.48 -5.525,-5.528 0,-1.475 0.575,-2.863 1.621,-3.908 1.044,-1.044 2.431,-1.619 3.905,-1.619 3.051,0 5.532,2.479 5.532,5.527 -0.001,3.048 -2.483,5.528 -5.533,5.528 z m 43.163,-6.327 -15.466,5.767 c -0.141,0.052 -0.297,0.053 -0.439,0 l -15.461,-5.767 c -0.246,-0.092 -0.409,-0.326 -0.409,-0.589 0,-0.262 0.163,-0.497 0.409,-0.589 l 15.461,-5.764 c 0.142,-0.053 0.297,-0.052 0.439,0 l 15.466,5.764 c 0.246,0.092 0.408,0.327 0.408,0.589 0,0.263 -0.162,0.497 -0.408,0.589 z m 11.789,6.327 c -3.045,0 -5.521,-2.48 -5.521,-5.528 0,-3.047 2.477,-5.527 5.521,-5.527 3.052,0 5.535,2.479 5.535,5.527 0,3.048 -2.483,5.528 -5.535,5.528 z m 41.847,4.403 -16.407,1.734 c -0.15,0.016 -0.301,-0.022 -0.425,-0.109 l -13.538,-9.441 c -0.214,-0.149 -0.316,-0.418 -0.25,-0.672 0.064,-0.254 0.281,-0.44 0.542,-0.468 l 16.412,-1.728 c 0.149,-0.016 0.3,0.022 0.425,0.109 l 13.534,9.436 c 0.215,0.147 0.314,0.417 0.25,0.672 -0.065,0.253 -0.281,0.44 -0.543,0.467 z m 11.126,9.914 c -3.044,0 -5.521,-2.48 -5.521,-5.529 0,-3.048 2.478,-5.528 5.521,-5.528 3.045,0 5.521,2.479 5.521,5.528 0.001,3.049 -2.476,5.529 -5.521,5.529 z"
   id="path107"
   inkscape:connector-curvature="0"
   style="fill:#febe10" />
<path
   id="path109"
   style="fill:#febe10"
   d="m 206.33855,-1.0060802 c -0.4044,0.00207 -0.80882,0.00404 -1.21385,0.0111363 -0.9262,0.0166253 -1.85357,0.0412613 -2.7785,0.0946584 -0.34806,0.0229074 -0.69382,0.052128 -1.04125,0.0835221 v 1.69828259 c 0,0.40700008 -0.31358,0.77803858 -0.70158,0.90203858 l -1.46442,0.4732919 c -2.046,0.781 -3.88871,2.0582447 -5.32871,3.6972447 -0.252,0.285 -0.64884,0.3902708 -1.00784,0.2672708 -0.818,-0.28 -1.65966,-0.4176105 -2.50566,-0.4176105 -2.982,0 -5.72915,1.7439446 -6.99915,4.4489434 -0.129,0.275 -0.38945,0.471405 -0.69045,0.523405 -0.301,0.052 -0.60252,-0.0467 -0.81852,-0.261702 -1.463,-1.4660018 -3.40905,-2.2718013 -5.47905,-2.2718013 -3.598,0 -6.77239,2.5481363 -7.55039,6.0581363 -0.069,0.31 -0.29323,0.563745 -0.59023,0.673745 -0.298,0.11 -0.63033,0.06193 -0.88533,-0.128068 -1.347,-1.008 -2.94399,-1.536806 -4.61599,-1.536806 -4.266,0 -7.73414,3.468146 -7.73414,7.734146 l 0.11136,1.219422 c 0.033,0.354 -0.13232,0.731743 -0.43432,0.918743 -0.301,0.187 -0.67242,0.230526 -0.97442,0.04455 -1.251,-0.773 -2.67172,-1.180446 -4.10372,-1.180446 -4.268,0 -7.73971,3.471714 -7.73971,7.739714 0,0.95 0.17897,1.88707 0.52897,2.78407 0.119,0.306 0.0172,0.642039 -0.18375,0.902039 -0.2,0.26 -0.57604,0.383224 -0.90204,0.345224 l -1.74283,-0.206021 c -2.168,0 -4.25447,0.925072 -5.71847,2.539072 -0.196,0.215 -0.47741,0.331247 -0.76841,0.306247 -0.29,-0.024 -0.55015,-0.183746 -0.70715,-0.428746 -1.434,-2.232 -3.86459,-3.56361 -6.50359,-3.56361 -3.616,0 -6.79496,2.557977 -7.55596,6.085977 -0.066,0.306 -0.28252,0.559745 -0.57352,0.673745 -0.291,0.114 -0.6182,0.0742 -0.8742,-0.105795 -1.313,-0.916 -2.84881,-1.397603 -4.43781,-1.397603 -4.266,0 -7.73414,3.471714 -7.73414,7.739714 l 0.10579,1.19715 c 0.03,0.338 -0.11991,0.699903 -0.40091,0.890903 -0.281,0.191 -0.64358,0.248648 -0.94658,0.09466 -1.112,-0.563 -2.29348,-0.851925 -3.513495,-0.851925 -4.267,0 -7.739714,3.472714 -7.739714,7.739714 0,1.112 0.237017,2.18968 0.696017,3.20168 0.15,0.33 0.0948,0.715129 -0.139203,0.991129 -0.235,0.275 -0.60772,0.390111 -0.95772,0.295111 -0.673,-0.184 -1.356803,-0.272839 -2.026803,-0.272839 -4.266,0 -7.734146,3.469146 -7.734146,7.734146 0,1.533 0.444808,3.0119 1.291808,4.2819 0.183,0.274 0.207808,0.627311 0.06682,0.924311 -0.142,0.297 -0.424699,0.498973 -0.751699,0.528973 -3.99,0.38 -6.999152,3.686169 -6.999152,7.695169 0,2.39 1.083387,4.610545 2.973387,6.091545 0.286,0.224 0.41152,0.592584 0.32852,0.946584 -0.082,0.354 -0.357722,0.626585 -0.712722,0.701585 -3.554,0.749 -6.13609,3.931102 -6.13609,7.567102 0,1.368 0.360243,2.713565 1.041243,3.886562 0.252,0.435 0.118752,0.989397 -0.306248,1.258397 -1.694,1.073 -2.82084,2.76119 -3.17384,4.75519 -0.406,2.292 0.231078,4.68132 1.804078,6.72632 0.305,0.397 0.243796,0.96424 -0.139204,1.28624 -1.259,1.056 -1.88319,2.45326 -1.85419,4.14826 0.052,3.001 2.138536,6.17856 4.170536,7.76756 2.266,1.771 6.770368,4.26578 11.470368,1.08578 0.334,-0.226 0.776923,-0.21254 1.096923,0.0334 3.793,2.924 8.783399,3.83014 13.352399,2.42214 0.355,-0.109 0.742549,0.003 0.985559,0.28398 0.24301,0.281 0.29365,0.6774 0.13364,1.0134 -0.50801,1.068 -0.51001,2.29529 0,3.37429 0.46601,0.999 1.26039,1.74419 2.23839,2.09919 0.925,0.336 1.94302,0.28423 2.86202,-0.14477 30.792,-14.517 63.81474,-21.87722 98.16074,-21.87722 34.351,0 67.39284,7.35765 98.21084,21.87165 1.933,0.779 4.16344,-0.0434 5.06144,-1.95442 0.505,-1.073 0.50564,-2.30229 -0.006,-3.37429 -0.16,-0.335 -0.10837,-0.7324 0.13363,-1.0134 0.243,-0.281 0.63156,-0.38741 0.98556,-0.27841 4.569,1.407 9.56097,0.49986 13.35797,-2.42214 0.319,-0.246 0.76192,-0.25846 1.09692,-0.0334 4.693,3.178 9.1968,0.68422 11.4648,-1.08578 2.031,-1.588 4.11854,-4.76756 4.17054,-7.76756 0.037,-1.692 -0.58862,-3.0867 -1.84862,-4.1427 -0.384,-0.322 -0.44521,-0.88924 -0.13921,-1.28624 1.572,-2.047 2.21665,-4.43531 1.80965,-6.72631 -0.354,-1.993 -1.48798,-3.68419 -3.18498,-4.75519 -0.425,-0.27 -0.56125,-0.828967 -0.30625,-1.263967 0.687,-1.172997 1.05238,-2.513994 1.05238,-3.880994 0,-3.637 -2.58466,-6.819101 -6.14166,-7.567101 -0.356,-0.075 -0.63629,-0.347586 -0.71829,-0.701586 -0.083,-0.354 0.0471,-0.728152 0.33409,-0.952152 1.893,-1.479 2.97896,-3.695977 2.97896,-6.085977 0,-4.009 -3.00359,-7.320737 -6.99359,-7.700737 -0.326,-0.031 -0.61526,-0.226405 -0.75726,-0.523405 -0.142,-0.297 -0.1195,-0.645743 0.0612,-0.918743 0.844,-1.273 1.29181,-2.756467 1.29181,-4.287467 0,-4.266 -3.47015,-7.739715 -7.73415,-7.739715 -0.67,0 -1.35537,0.09441 -2.03237,0.278407 -0.351,0.094 -0.72372,-0.01811 -0.95772,-0.295111 -0.234,-0.277 -0.28364,-0.666697 -0.13364,-0.996697 0.464,-1.014 0.69602,-2.088112 0.69602,-3.196112 0,-4.267 -3.47015,-7.739714 -7.73415,-7.739714 -1.22,0 -2.43036,0.293357 -3.50236,0.846357 -0.303,0.156 -0.66358,0.104468 -0.94658,-0.08352 -0.282,-0.189 -0.43447,-0.546334 -0.40647,-0.885334 l 0.10022,-1.213855 c 0,-4.268 -3.47271,-7.739714 -7.73971,-7.739714 -1.592,0 -3.11754,0.482603 -4.41554,1.397603 -0.255,0.181 -0.58776,0.224363 -0.87976,0.111363 -0.292,-0.113 -0.50752,-0.368745 -0.57352,-0.673745 -0.779,-3.53 -3.95753,-6.091545 -7.56153,-6.091545 -2.639,0 -5.07273,1.335178 -6.51473,3.569178 -0.156,0.245 -0.41715,0.399178 -0.70715,0.423178 -0.289,0.024 -0.57797,-0.08568 -0.77397,-0.300679 -1.459,-1.613 -3.54091,-2.539072 -5.71291,-2.539072 l -1.73726,0.200453 c -0.327,0.038 -0.70104,-0.08422 -0.90204,-0.345224 -0.2,-0.259 -0.30275,-0.596039 -0.18375,-0.902039 0.349,-0.889 0.5234,-1.82707 0.5234,-2.78407 0,-4.268 -3.47271,-7.739714 -7.73971,-7.739714 -1.435,0 -2.84958,0.408446 -4.09258,1.180446 -0.3,0.187 -0.67899,0.152596 -0.97999,-0.03341 -0.302,-0.185 -0.46532,-0.560175 -0.43432,-0.913175 l 0.10579,-1.230559 c 0,-2.067 -0.80523,-4.011481 -2.26623,-5.473481 -1.462,-1.462 -3.39991,-2.266233 -5.46791,-2.266233 -1.667,0 -3.26756,0.533375 -4.62156,1.542375 -0.254,0.189 -0.58733,0.234499 -0.88533,0.122499 -0.297,-0.11 -0.51566,-0.363745 -0.58466,-0.673745 -0.775,-3.51 -3.95239,-6.0581363 -7.55039,-6.0581363 -2.072,0 -4.01705,0.8057995 -5.47905,2.2718013 -0.216,0.215 -0.51852,0.314702 -0.81852,0.261702 -0.301,-0.052 -0.56145,-0.248405 -0.69045,-0.523405 -1.271,-2.7049988 -4.01815,-4.4489434 -6.99915,-4.4489434 -0.846,0 -1.69023,0.1376105 -2.51123,0.4176105 -0.358,0.122 -0.75327,0.018729 -1.00227,-0.2672708 -1.438,-1.639 -3.27814,-2.9152447 -5.32314,-3.6972447 l -1.46999,-0.4732919 c -0.388,-0.124 -0.70158,-0.4960385 -0.70158,-0.90203858 V -1.0060802 c -0.0334,1.526e-4 -0.0668,-1.711e-4 -0.10023,0 z M 190.30231,8.014306 c 3.047,0 5.52359,2.477595 5.52359,5.523595 0,3.047 -2.47659,5.523594 -5.52359,5.523594 -3.05,0 -5.53473,-2.476594 -5.53473,-5.523594 0,-3.046 2.48473,-5.523595 5.53473,-5.523595 z m 27.15025,0 c 3.051,0 5.52916,2.477595 5.52916,5.523595 0,3.047 -2.47816,5.523594 -5.52916,5.523594 -3.042,0 -5.51803,-2.476594 -5.51803,-5.523594 0.001,-1.476 0.57176,-2.864834 1.61476,-3.9088345 1.041,-1.043 2.42927,-1.6147605 3.90327,-1.6147605 z m -41.13742,2.444413 c 3.047,0 5.5236,2.477595 5.5236,5.523595 0,3.046 -2.4776,5.523594 -5.5236,5.523594 -3.046,0 -5.52359,-2.478594 -5.52359,-5.523594 0,-1.477 0.57633,-2.865834 1.62033,-3.908834 1.043,-1.043 2.42926,-1.614761 3.90326,-1.614761 z m 55.12458,0 c 3.049,0 5.52917,2.477595 5.52917,5.523595 0,3.046 -2.48017,5.523594 -5.52917,5.523594 -3.044,0 -5.51802,-2.478594 -5.51802,-5.523594 0,-3.046 2.47402,-5.523595 5.51802,-5.523595 z m -68.76652,5.061439 c 3.046,0 5.52916,2.481163 5.52916,5.529163 0,3.045 -2.48316,5.523594 -5.52916,5.523594 -3.048,0 -5.52359,-2.478594 -5.52359,-5.523594 0,-3.047 2.47559,-5.529163 5.52359,-5.529163 z m 82.4029,0 c 3.048,0 5.52916,2.481163 5.52916,5.529163 0,3.045 -2.48116,5.523594 -5.52916,5.523594 -3.046,0 -5.5236,-2.478594 -5.5236,-5.523594 0,-3.047 2.4776,-5.529163 5.5236,-5.529163 z m -41.19867,5.802002 c 3.049,0 5.5236,2.481162 5.5236,5.529162 0,3.046 -2.4756,5.523595 -5.5236,5.523595 -3.048,0 -5.52916,-2.477595 -5.52916,-5.523595 0,-3.048 2.48116,-5.529162 5.52916,-5.529162 z m -54.33947,2.934409 c 1.474,0 2.86583,0.576329 3.90883,1.620329 1.042,1.045 1.61476,2.433834 1.61476,3.908834 0,3.048 -2.47959,5.529163 -5.52359,5.529163 -3.049,0 -5.52916,-2.481163 -5.52916,-5.529163 -0.001,-3.047 2.48016,-5.529163 5.52916,-5.529163 z m 108.67338,0 c 3.049,0 5.52916,2.482163 5.52916,5.529163 0,3.048 -2.48016,5.529163 -5.52916,5.529163 -3.046,0 -5.52359,-2.481163 -5.52359,-5.529163 0,-3.047 2.47759,-5.529163 5.52359,-5.529163 z m -64.85212,0.640336 c 1.00497,0.02297 2.02074,0.07487 3.05134,0.15034 0.51,0.038 0.89406,0.519106 0.86306,1.030106 l -0.0445,0.773971 c 0,1.339 0.39561,2.634358 1.15261,3.747358 0.105,0.155 0.16704,0.335406 0.16704,0.523406 v 6.993583 c 0,0.188 -0.062,0.368405 -0.16704,0.523405 -0.757,1.113 -1.15261,2.409358 -1.15261,3.747358 0,1.341 0.39561,2.638926 1.15261,3.752926 0.105,0.155 0.16704,0.335405 0.16704,0.523405 v 6.988016 c 0,0.188 -0.061,0.373973 -0.16704,0.528973 -0.756,1.108 -1.15261,2.39979 -1.15261,3.74179 0,2.628 1.55295,5.017408 3.95895,6.080408 0.378,0.167 0.60325,0.564425 0.55125,0.974425 -0.052,0.41 -0.36697,0.733812 -0.77397,0.801812 -3.915,0.649 -6.0767,2.75395 -6.7987,6.61495 -0.071,0.375 -0.359,0.666562 -0.735,0.740562 -4.489,0.884 -6.49245,3.58982 -6.49245,8.76982 0,6.221 3.01993,9.0185 9.79993,9.0705 0.273,0.001 0.53672,0.126088 0.71272,0.334088 0.176,0.208 0.25002,0.482699 0.20602,0.751699 -0.751,4.59 -4.67206,7.917895 -9.32106,7.917895 -4.139,0.001 -7.8628,-2.764881 -9.0538,-6.731881 -0.053,-0.175 -0.053,-0.36511 0,-0.54011 0.218,-0.726 0.32852,-1.471688 0.32852,-2.221688 0,-2.08 -0.80837,-4.03689 -2.27737,-5.50689 -1.469,-1.47 -3.42689,-2.277369 -5.50689,-2.277369 -4.293,0 -7.78426,3.491259 -7.78426,7.784259 0,1.348 0.36438,2.692562 1.05238,3.886562 0.085,0.148 0.1255,0.314428 0.1225,0.484428 -0.092,4.216997 -3.00981,7.894428 -7.09381,8.942428 -4.505,1.161 -9.12908,-1.08642 -10.99708,-5.34541 -0.11,-0.25 -0.10124,-0.539107 0.0167,-0.785107 0.119,-0.246 0.33636,-0.425565 0.60136,-0.495565 6.552,-1.743 8.78658,-5.199369 7.23858,-11.225369 -1.293,-5.013 -3.90871,-7.133653 -8.47471,-6.876653 -0.382,0.021 -0.73447,-0.192109 -0.89647,-0.540109 -1,-2.15 -2.3624,-3.537355 -4.1594,-4.237355 -0.392,-0.152 -0.63222,-0.550856 -0.59022,-0.968856 2.55943,-25.013125 21.34216,-49.138241 52.49642,-48.426111 z m 21.03086,0 c 31.15426,-0.712072 49.93795,23.413955 52.49642,48.426111 0.043,0.418 -0.19822,0.816856 -0.59022,0.968856 -1.785,0.696 -3.14683,2.082355 -4.15383,4.237355 -0.163,0.347 -0.51547,0.561109 -0.89647,0.540109 -4.564,-0.257 -7.17814,1.859085 -8.46914,6.871085 -1.55,6.027 0.67901,9.492937 7.23301,11.230937 0.264,0.07 0.48793,0.254133 0.60693,0.501133 0.119,0.246 0.12128,0.529539 0.0111,0.779539 -1.873,4.25899 -6.49864,6.50541 -11.00264,5.34541 -4.08,-1.048 -6.99881,-4.725431 -7.09381,-8.942428 -0.003,-0.172 0.0411,-0.340996 0.12807,-0.489996 0.683,-1.173 1.04681,-2.513994 1.04681,-3.880994 0,-4.292 -3.49426,-7.784259 -7.78426,-7.784259 -4.292,0 -7.78426,3.491259 -7.78426,7.784259 0,0.756 0.11209,1.50112 0.33409,2.21612 0.056,0.179 0.055,0.366678 0,0.545678 -1.218,4.029 -4.85537,6.737449 -9.05937,6.737449 -4.649,0 -8.56749,-3.333463 -9.31549,-7.923463 -0.044,-0.27 0.0356,-0.543699 0.21158,-0.751699 0.177,-0.209 0.43516,-0.332088 0.70716,-0.334088 6.776,-0.052 9.79436,-2.8495 9.79436,-9.0705 0,-5.179 -1.99889,-7.88582 -6.48689,-8.76982 -0.377,-0.074 -0.66956,-0.365562 -0.74056,-0.740562 -0.722,-3.861 -2.87913,-5.96495 -6.79313,-6.61495 -0.407,-0.068 -0.72197,-0.391812 -0.77397,-0.801812 -0.052,-0.41 0.16668,-0.806425 0.54568,-0.974425 2.406,-1.064 3.96451,-3.453408 3.96451,-6.080408 0,-1.349 -0.3976,-2.64179 -1.1526,-3.74179 -0.107,-0.156 -0.16705,-0.339973 -0.16705,-0.528973 v -6.988016 c 0,-0.188 0.06,-0.373973 0.16705,-0.528973 0.755,-1.106 1.1526,-2.400358 1.1526,-3.747358 0,-1.345 -0.3976,-2.642358 -1.1526,-3.747358 -0.107,-0.155 -0.16705,-0.335405 -0.16705,-0.523405 v -6.993583 c 0,-0.188 0.06,-0.368406 0.16705,-0.523406 0.755,-1.104 1.1526,-2.401358 1.1526,-3.747358 l -0.0445,-0.751698 c -0.031,-0.511 0.34749,-1.015379 0.85749,-1.052379 1.03059,-0.07547 2.04637,-0.127369 3.05134,-0.15034 z m -88.5891,9.783222 c 1.475,0 2.86027,0.577328 3.90327,1.620328 1.043,1.043 1.62032,2.428266 1.62032,3.903266 0,3.05 -2.47959,5.529163 -5.52359,5.529163 -3.049,0 -5.52916,-2.479163 -5.52916,-5.529163 -0.001,-3.044 2.47916,-5.523594 5.52916,-5.523594 z m 156.15848,0 c 3.046,0 5.52359,2.479594 5.52359,5.523594 0,3.05 -2.47859,5.529163 -5.52359,5.529163 -3.05,0 -5.52917,-2.479163 -5.52917,-5.529163 0,-3.044 2.47917,-5.523594 5.52917,-5.523594 z M 139.4986,35.827164 c 3.048,0 5.52917,2.481162 5.52917,5.529162 0,3.044 -2.48017,5.518027 -5.52917,5.518027 -3.044,0 -5.51802,-2.474027 -5.51802,-5.518027 0,-3.048 2.47302,-5.529162 5.51802,-5.529162 z m 128.7521,0 c 1.475,0 2.86383,0.57076 3.90883,1.61476 1.044,1.044 1.61476,2.436402 1.61476,3.914402 0,3.044 -2.47859,5.518027 -5.52359,5.518027 -3.048,0 -5.5236,-2.474027 -5.5236,-5.518027 0,-3.049 2.4756,-5.529162 5.5236,-5.529162 z m -64.37327,1.030105 c 3.049,0 5.5236,2.481163 5.5236,5.529163 0.001,3.05 -2.4746,5.529163 -5.5236,5.529163 -3.048,0 -5.52916,-2.479163 -5.52916,-5.529163 0,-3.048 2.48116,-5.529163 5.52916,-5.529163 z m -91.51237,3.079182 c 3.044,0 5.51802,2.474594 5.51802,5.523594 0,3.047 -2.47402,5.529163 -5.51802,5.529163 -3.049,0 -5.53473,-2.482163 -5.53473,-5.529163 0,-3.049 2.48573,-5.523594 5.53473,-5.523594 z m 183.02475,0 c 3.05,0 5.52916,2.474594 5.52916,5.523594 0,3.047 -2.47916,5.529163 -5.52916,5.529163 -3.044,0 -5.5236,-2.482163 -5.5236,-5.529163 0,-3.049 2.4796,-5.523594 5.5236,-5.523594 z M 99.875721,49.00695 c 3.044019,0 5.518029,2.483163 5.518029,5.529163 0,3.048 -2.47401,5.523594 -5.518029,5.523594 -3.05,0 -5.534731,-2.475594 -5.534731,-5.523594 0,-3.047 2.483731,-5.529163 5.534731,-5.529163 z m 208.014559,0 c 3.045,0 5.51803,2.483163 5.51803,5.529163 0,3.048 -2.47403,5.523594 -5.51803,5.523594 -3.049,0 -5.52916,-2.475594 -5.52916,-5.523594 0,-3.047 2.48016,-5.529163 5.52916,-5.529163 z m -175.11242,0.30068 c 3.046,0 5.52359,2.480162 5.52359,5.529162 0,3.047 -2.47759,5.523595 -5.52359,5.523595 -3.047,0 -5.52916,-2.477595 -5.52916,-5.523595 0,-1.476 0.57532,-2.863834 1.62032,-3.908834 1.045,-1.045 2.43484,-1.620328 3.90884,-1.620328 z m 142.19915,0 c 3.046,0 5.52359,2.480162 5.52359,5.529162 0,3.047 -2.47859,5.523595 -5.52359,5.523595 -3.048,0 -5.5236,-2.477595 -5.5236,-5.523595 -0.001,-3.049 2.4756,-5.529162 5.5236,-5.529162 z m -71.09958,3.090317 c 3.049,0 5.5236,2.483163 5.5236,5.529163 0,3.046 -2.4756,5.523594 -5.5236,5.523594 -3.048,10e-4 -5.52916,-2.476594 -5.52916,-5.523594 0,-3.046 2.48116,-5.529163 5.52916,-5.529163 z m -79.68007,0.545678 c 0.1665,0.0028 0.33329,0.05177 0.47329,0.144772 0.28,0.187 0.45731,0.482516 0.43431,0.818516 l -0.0668,0.929879 c 0,2.391 1.08753,4.605977 2.98453,6.085977 0.287,0.224 0.41709,0.598152 0.33409,0.952152 -0.083,0.355 -0.36129,0.626586 -0.71829,0.701586 -3.566,0.742 -6.15837,3.931238 -6.15837,7.578238 0,3.398 2.27673,6.444193 5.53473,7.411193 0.266,0.079 0.48579,0.268406 0.59579,0.523406 0.11,0.255 0.0972,0.549244 -0.0278,0.796244 -0.631,1.248 -0.89354,2.754352 -0.77954,4.482352 0.025,0.381 -0.18397,0.737039 -0.52897,0.902039 -4.123,1.973 -5.38715,5.091173 -4.09815,10.106173 1.547,6.028998 5.16721,7.988678 11.74321,6.347678 0.266,-0.066 0.5454,-0.0132 0.7684,0.14477 0.223,0.159 0.36477,0.40732 0.38977,0.67932 0.425,4.632 -2.53926,8.83481 -7.04926,9.99481 -3.719,0.955 -7.61443,-0.41666 -9.92243,-3.48566 -0.095,-0.126 -0.16175,-0.3684 -0.18375,-0.5234 l -0.22829,-1.6092 c -1.073,-4.16 -5.32398,-6.672567 -9.47698,-5.60154 -2.016,0.518 -3.71289,1.78831 -4.77189,3.58031 -1.057,1.791 -1.34965,3.88466 -0.82965,5.89666 0.309,1.207 0.88455,2.29095 1.72055,3.22395 0.133,0.148 0.21486,0.33654 0.23386,0.53454 0.362,3.768 -1.53783,7.37914 -4.849847,9.20414 -2.393,1.317 -5.246236,1.52965 -7.823236,0.58465 -0.35,-0.128 -0.591495,-0.45108 -0.612495,-0.82408 -0.021,-0.372 0.183837,-0.7239 0.517837,-0.8909 4.923,-2.46 6.218513,-5.91767 4.209513,-11.20867 -1.288,-3.382 -3.025234,-5.42684 -5.167234,-6.07484 -0.42,-0.127 -0.696608,-0.53086 -0.662608,-0.96886 2.058,-26.30097 10.20633,-38.525274 33.53134,-50.319274 0.15,-0.076 0.31793,-0.119681 0.48443,-0.116931 z m 159.36015,0.0056 c 0.16663,-0.0044 0.33493,0.03586 0.48443,0.111363 23.321,11.793 31.47077,24.018304 33.52577,50.319274 0.035,0.439 -0.24161,0.84186 -0.66261,0.96886 -2.129,0.646 -3.86823,2.68984 -5.16723,6.07484 -2.008,5.291 -0.70535,8.74867 4.22065,11.20867 0.334,0.167 0.53883,0.5179 0.51783,0.8909 -0.021,0.373 -0.26249,0.69508 -0.61249,0.82408 -2.584,0.946 -5.43524,0.73235 -7.82324,-0.58465 -3.316,-1.827 -5.22342,-5.43914 -4.85542,-9.20414 0.019,-0.198 0.10187,-0.38654 0.23387,-0.53454 0.83,-0.93 1.41312,-2.01652 1.72612,-3.22952 0.521,-2.007 0.22535,-4.09752 -0.82965,-5.88552 -1.059,-1.794 -2.75647,-3.06788 -4.77747,-3.58588 -4.149,-1.070027 -8.40197,1.44541 -9.47697,5.59041 l -0.22829,1.62033 c -0.022,0.157 -0.0888,0.3974 -0.18375,0.5234 -2.313,3.069 -6.21,4.43509 -9.928,3.48009 -4.501,-1.16 -7.46526,-5.35924 -7.04926,-9.98924 0.023,-0.272 0.16777,-0.52032 0.38977,-0.67932 0.222,-0.158 0.5034,-0.21077 0.7684,-0.14477 6.581,1.641 10.20734,-0.31668 11.75434,-6.347678 1.289,-5.012 0.0223,-8.129173 -4.10371,-10.106173 -0.346,-0.165 -0.55498,-0.520039 -0.52898,-0.902039 0.115,-1.765 -0.14054,-3.230352 -0.77954,-4.482352 -0.126,-0.248 -0.13804,-0.534676 -0.0278,-0.790676 0.109,-0.255 0.32879,-0.449974 0.59579,-0.528974 3.26,-0.967 5.53473,-4.019762 5.53473,-7.416762 0,-3.646 -2.58679,-6.829669 -6.15279,-7.572669 -0.357,-0.074 -0.63986,-0.346586 -0.72386,-0.701586 -0.08,-0.354 0.0471,-0.728152 0.33409,-0.952152 1.896,-1.477 2.98452,-3.697545 2.98452,-6.091545 l -0.0613,-0.918743 c -0.022,-0.335 0.15332,-0.633516 0.43432,-0.818516 0.14,-0.093 0.3011,-0.140397 0.46772,-0.144772 z M 89.70273,60.956178 c 3.049,0 5.529163,2.480163 5.529163,5.529163 0,3.047 -2.479163,5.523594 -5.529163,5.523594 -3.044,0 -5.518027,-2.477594 -5.518027,-5.523594 0,-3.049 2.473027,-5.529163 5.518027,-5.529163 z m 228.34384,0 c 3.048,0 5.52916,2.480163 5.52916,5.529163 0,3.047 -2.48116,5.523594 -5.52916,5.523594 -3.049,0 -5.5236,-2.477594 -5.5236,-5.523594 0,-3.049 2.4746,-5.529163 5.5236,-5.529163 z m -188.82675,3.669404 c 3.047,0 5.52916,2.483163 5.52916,5.529163 0,3.047 -2.48216,5.523594 -5.52916,5.523594 -3.044,0 -5.5236,-2.475594 -5.5236,-5.523594 0,-3.046 2.4796,-5.529163 5.5236,-5.529163 z m 149.31523,0 c 3.048,0 5.52359,2.483163 5.52359,5.529163 10e-4,3.048 -2.47559,5.523594 -5.52359,5.523594 -3.05,0 -5.52916,-2.476594 -5.52916,-5.523594 0,-3.046 2.47916,-5.529163 5.52916,-5.529163 z m -74.65762,6.559268 c 4.929,0 8.93687,4.008865 8.93687,8.936865 0,4.928 -4.00787,8.936864 -8.93687,8.936864 -4.927,0 -8.93686,-4.007864 -8.93686,-8.936864 0,-4.928 4.00986,-8.936865 8.93686,-8.936865 z M 83.316074,74.392099 c 3.047,0 5.523594,2.479594 5.523594,5.523594 0,3.05 -2.476594,5.529163 -5.523594,5.529163 -3.05,0 -5.529163,-2.478163 -5.529163,-5.529163 0,-3.045 2.479163,-5.523594 5.529163,-5.523594 z m 241.128286,0 c 3.047,0 5.5236,2.479594 5.5236,5.523594 0,3.05 -2.4766,5.529163 -5.5236,5.529163 -3.046,0 -5.52359,-2.478163 -5.52359,-5.529163 -10e-4,-3.045 2.47759,-5.523594 5.52359,-5.523594 z m -186.74983,5.11712 c 4.14763,-0.204982 8.02296,2.525915 9.09834,6.70404 1.228,4.768 -1.65921,9.649145 -6.43121,10.880145 -2.314,0.596 -4.72042,0.25628 -6.77642,-0.95772 -2.056,-1.214 -3.51429,-3.158481 -4.10929,-5.473481 -1.225,-4.774 1.6592,-9.655145 6.4312,-10.880145 0.59638,-0.1535 1.19486,-0.243556 1.78738,-0.272839 z m 132.40479,0 c 0.5833,0.03252 1.16964,0.124089 1.74839,0.272839 2.313,0.594 4.25292,2.054287 5.46792,4.109287 1.216,2.054 1.55829,4.457858 0.96329,6.770858 -0.596,2.316 -2.05529,4.259481 -4.10929,5.473481 -2.054,1.212 -4.45886,1.55372 -6.77086,0.95772 -2.313,-0.595 -4.25948,-2.054287 -5.47348,-4.109287 -0.822,-1.393 -1.2417,-2.949897 -1.2417,-4.526897 0,-0.748 0.094,-1.495393 0.28398,-2.238393 v -0.0056 c 0.59184,-2.309737 2.05124,-4.252814 4.10372,-5.467913 1.5405,-0.912 3.27814,-1.333674 5.02803,-1.236127 z M 79.769169,89.698915 c 3.047,0 5.523594,2.479594 5.523594,5.523594 0,3.048 -2.476594,5.529161 -5.523594,5.529161 -3.047,0 -5.529163,-2.481161 -5.529163,-5.529161 0,-3.044 2.482163,-5.523594 5.529163,-5.523594 z m 248.222101,0 c 3.044,0 5.51802,2.479594 5.51802,5.523594 0,3.048 -2.47402,5.529161 -5.51802,5.529161 -3.051,0 -5.52917,-2.481161 -5.52917,-5.529161 0,-3.044 2.47817,-5.523594 5.52917,-5.523594 z m -124.11384,2.132597 c 0.466,0 0.85731,0.346381 0.92431,0.807381 0.694,4.881 3.78099,9.067667 8.25199,11.208667 0.396,0.189 0.59656,0.63451 0.49556,1.06351 -0.101,0.428 -0.50001,0.72629 -0.94101,0.71829 l -8.73085,-0.16147 -8.73641,0.16147 c -0.44,0.008 -0.83345,-0.29029 -0.93545,-0.71829 -0.102,-0.429 0.0986,-0.87351 0.49557,-1.06351 4.47,-2.138 7.55698,-6.325667 8.25198,-11.208667 0.066,-0.46 0.45831,-0.807381 0.92431,-0.807381 z m -29.77841,6.097113 c 0.392,-0.117 0.81224,0.03307 1.04124,0.373066 1.954,2.894989 4.92478,5.104609 8.35778,6.219609 0.423,0.138 0.69134,0.5547 0.64034,0.9967 -0.052,0.441 -0.40893,0.78608 -0.85193,0.82408 -6.194,0.528 -12.46713,1.31405 -18.64213,2.33305 -0.438,0.073 -0.86554,-0.17622 -1.02454,-0.59022 -0.159,-0.415 -9.3e-4,-0.88019 0.37307,-1.11919 3.031,-1.936 5.34115,-4.81208 6.50915,-8.096079 0.137,-0.385997 0.48647,-0.640632 0.89647,-0.623632 l 0.42875,0.01671 c 0.771,0 1.5358,-0.113089 2.2718,-0.334089 z m 59.56796,0 c 0.725,0.22 1.4811,0.334089 2.2551,0.334089 l 0.43431,-0.01671 c 0.408,-0.017 0.75847,0.232067 0.89647,0.618064 1.173,3.289997 3.48473,6.170647 6.51473,8.101647 0.373,0.238 0.52649,0.70419 0.36749,1.11919 -0.158,0.415 -0.58553,0.66322 -1.02453,0.59022 -6.17,-1.019 -12.44014,-1.80405 -18.64214,-2.33305 -0.443,-0.038 -0.80192,-0.38208 -0.85192,-0.82408 -0.052,-0.442 0.21833,-0.8597 0.64033,-0.9967 3.429,-1.114 6.39735,-3.32262 8.36335,-6.219609 0.233,-0.339 0.65481,-0.492066 1.04681,-0.373066 z m -92.62043,1.848623 c 0.451,-0.116 0.91892,0.116655 1.09692,0.545682 1.875,4.513 5.86655,7.79752 10.66855,8.78652 0.433,0.089 0.74314,0.47117 0.74614,0.91317 0.001,0.442 -0.30957,0.82575 -0.74057,0.91875 -5.649,1.23 -11.25858,2.66676 -16.67658,4.27076 -0.423,0.125 -0.87478,-0.063 -1.08578,-0.45102 -0.21,-0.387 -0.12441,-0.87117 0.21159,-1.15817 3.717,-3.181 5.61671,-7.97286 5.08371,-12.81786 -0.051,-0.462 0.24502,-0.891832 0.69602,-1.007832 z m 125.6562,0.0056 c 0.45,0.115 0.74602,0.539264 0.69602,1.002264 -0.528,4.843 1.37528,9.64043 5.08928,12.82343 0.334,0.287 0.42159,0.7656 0.21159,1.1526 -0.214,0.389 -0.66836,0.57602 -1.09136,0.45102 -5.413,-1.604 -11.01901,-3.04076 -16.67101,-4.27076 -0.431,-0.094 -0.74356,-0.47775 -0.74056,-0.91875 0.003,-0.442 0.3177,-0.82417 0.7517,-0.91317 4.807,-0.989 8.78742,-4.26996 10.65742,-8.78096 0.178,-0.429979 0.64592,-0.661674 1.09692,-0.545674 z M 80.866092,106.28083 c 0.434144,-0.0266 0.871896,-0.0214 1.308513,0.0167 0.582156,0.0508 1.16351,0.16177 1.73726,0.32852 2.292,0.666 4.191846,2.18533 5.339846,4.27633 0.75,1.362 1.102491,2.83704 1.102491,4.29304 0.001,3.153 -1.668556,6.21194 -4.621556,7.83994 -4.314,2.374 -9.76668,0.79593 -12.14968,-3.51907 -2.372,-4.317 -0.789368,-9.76054 3.524632,-12.13854 1.178437,-0.648 2.456063,-1.01703 3.758494,-1.09693 z m 246.022678,0 c 1.30145,0.0801 2.57674,0.44949 3.75293,1.09693 2.092,1.148 3.61033,3.03771 4.27633,5.32871 0.668,2.294 0.4023,4.7184 -0.7517,6.8154 -2.377,4.316 -7.82311,5.8895 -12.14411,3.5135 -2.095,-1.155 -3.61333,-3.05499 -4.27633,-5.35099 -0.236,-0.82 -0.35636,-1.65795 -0.35636,-2.48895 0,-1.487 0.38019,-2.95504 1.11919,-4.29304 v -0.006 c 1.14624,-2.08988 3.04278,-3.6052 5.33428,-4.27076 0.574,-0.16675 1.1554,-0.27783 1.73726,-0.32852 0.4364,-0.038 0.8747,-0.0434 1.30851,-0.0167 z m -211.52248,7.62279 c 0.1955,-8.8e-4 0.39131,0.0567 0.55681,0.17818 2.401,1.76 5.3983,2.84377 8.4413,3.04577 0.443,0.03 0.80306,0.36638 0.86306,0.80738 0.061,0.441 -0.19349,0.86083 -0.61249,1.00783 -5.841,2.054 -11.67776,4.36566 -17.34476,6.87666 -0.406,0.18 -0.88447,0.0512 -1.14147,-0.31182 -0.258,-0.361 -0.22524,-0.85444 0.078,-1.18044 2.079,-2.232 3.52374,-5.06729 4.06474,-7.99029 0.071,-0.383 0.41324,-0.68926 0.79624,-0.75726 0,0 1.01697,-0.18375 1.01897,-0.18375 0.981,-0.251 1.90239,-0.69151 2.72839,-1.30851 0.1645,-0.123 0.35575,-0.18288 0.55125,-0.18375 z m 177.02786,0 c 0.196,10e-4 0.38725,0.0653 0.55125,0.18931 0.817,0.615 1.73282,1.05652 2.72282,1.30852 l 1.01897,0.17818 c 0.382,0.068 0.71967,0.37526 0.79067,0.75726 0.55,2.926 1.99374,5.76685 4.06474,7.99585 0.304,0.324 0.33576,0.81388 0.078,1.17488 -0.258,0.361 -0.73447,0.49082 -1.14147,0.31182 -5.687,-2.518 -11.51719,-4.83166 -17.33919,-6.87666 -0.419,-0.147 -0.67806,-0.56783 -0.61806,-1.00783 0.061,-0.44 0.42006,-0.77738 0.86306,-0.80738 3.081,-0.204 6.00187,-1.2532 8.44687,-3.0402 0.166,-0.1215 0.36638,-0.18513 0.56238,-0.18375 z" />
<path
   d="m 299.10329,141.74114 c 0.249,1.021 1.195,4.903 1.371,5.622 -0.648,0.361 -4.393,2.446 -5.444,3.032 -0.302,-1.18 -1.456,-5.693 -1.674,-6.542 0.814,-0.299 4.757,-1.748 5.747,-2.112 z"
   id="path111"
   inkscape:connector-curvature="0"
   style="fill:#ee324e" />
<path
   d="m 1.3652724,344.38914 c 0,111.607 90.8449986,202.405 202.5100176,202.405 111.665,0 202.511,-90.798 202.511,-202.405 0,-111.722 -90.846,-202.614 -202.511,-202.614 -111.664019,0 -202.5100176,90.892 -202.5100176,202.614 z"
   id="path113"
   inkscape:connector-curvature="0"
   style="fill:#00529f" />
<path
   d="m 7.1082724,344.38914 c 0,54.222 22.0619986,103.374 57.6969986,138.993 l 0,0 c 35.640009,35.617 84.815019,57.669 139.071019,57.669 l 0,0 c 54.251,0 103.43,-22.052 139.07,-57.669 l 0,0 c 35.636,-35.619 57.697,-84.771 57.697,-138.993 l 0,0 c 0,-54.282 -22.062,-103.486 -57.697,-139.145 l 0,0 c -35.641,-35.654 -84.819,-57.728 -139.07,-57.728 l 0,0 c -54.252,0 -103.43101,22.074 -139.069019,57.728 l 0,0 c -35.635,35.659 -57.6989986,84.863 -57.6989986,139.145 l 0,0 0,0 z"
   id="path115"
   inkscape:connector-curvature="0"
   style="fill:#febe10" />
<path
   d="m 24.351271,344.28314 c 0.004,-98.996 80.528019,-179.518 179.525019,-179.523 l 0,0 c 98.997,0.005 179.519,80.527 179.523,179.523 l 0,0 c -0.004,98.999 -80.526,179.522 -179.523,179.527 l 0,0 c -98.997,-0.005 -179.521019,-80.528 -179.525019,-179.527 l 0,0 z"
   id="path117"
   inkscape:connector-curvature="0"
   style="fill:#00529f" />
<path
   d="m 30.095271,344.28414 c 0,-95.822 77.958019,-173.779 173.781019,-173.779 95.823,0 173.781,77.957 173.781,173.779 0,95.824 -77.958,173.783 -173.781,173.783 -95.823,0 -173.781019,-77.959 -173.781019,-173.783 z"
   id="path119"
   inkscape:connector-curvature="0"
   style="fill:#ffffff" />
<path
   d="m 370.45229,343.64614 c 0,-60.625 -33.114,-116.653 -86.421,-146.219 l -1.113,-0.618 c 0,0 -37.832,39.312 -38.785,40.302 -0.082,0 -0.198,0 -0.198,0 0,0 -0.586,0.586 -0.622,0.623 -12.407,-4.604 -25.651,-7.077 -39.413,-7.272 0,0 -0.001,0 -0.002,0 -14.049,0 -28.583,2.603 -41.152,7.268 -1.386,-1.447 -38.778,-40.498 -38.778,-40.498 l -1.118,0.626 c -0.401,0.225 -0.791,0.465 -1.19,0.692 l -0.066,-0.069 c -30.309019,17.201 -54.727019,43.616 -69.426019,75.413 0.028,0.029 0.057,0.058 0.085,0.086 -9.974,21.533 -15.392,45.238 -15.392,69.667 0,39.853 14.311,77.017 41.385,107.477 l 1.18,1.327 22.152019,-22.633 -1.22001,-1.157 c -11.993009,-11.381 -34.073009,-43.062 -34.073009,-83.156 0,-1.097 0.016,-2.2 0.05,-3.312 0.564,-16.099 3.413,-31.175 8.508,-45.178 6.194,6.314 12.375,12.617 18.536,18.896 -1.946,7.679 -3.014,15.535 -3.113,23.424 -0.006,0.468 -0.009,0.937 -0.009,1.404 0,50.723 35.099019,96.193 84.083019,109.013 0,2.259 0,28.525 0,28.525 h 30.763 c 0,0 0,-22.143 0,-24.942 6.914,-0.151 13.831,-0.988 20.631,-2.445 14.784,15.098 29.643,30.278 44.636,45.611 31.561,-13.828 58.056,-37.144 75.838,-66.331 l -0.026,-0.027 c 15.773,-25.876 24.27,-55.78 24.27,-86.497 z m -196.111,71.82 c -31.515,-11.421 -51.743,-38.621 -52.435,-70.477 17.518,17.856 34.967,35.645 52.435,53.46 0,9.034 0,15.76 0,17.017 z m 29.297,-135.549 c -1.884,-1.924 -13.432,-13.715 -16.608,-16.959 5.684,-1.093 11.435,-1.692 15.268,-1.517 6.074,0.188 11.595,0.896 16.838,2.09 -2.939,3.108 -13.657,14.441 -15.498,16.386 z m 118.63,125.557 -98.438,-101.536 c 11.845,-12.512 24.7,-26.092 25.714,-27.162 10.336,7.291 18.725,16.836 24.276,27.725 l 0.96,1.882 24.738,-21.369 -0.711,-1.193 c -6.73,-11.291 -16.1,-21.653 -27.076,-30.167 2.058,-2.107 14.699,-15.045 16.385,-16.771 25.5,18.32 50.94,59.907 50.94,105.259 0.001,26.564 -6.146,45.791 -16.788,63.332 z"
   id="path121"
   inkscape:connector-curvature="0"
   style="fill:#00529f" />
<path
   d="m 283.94529,204.02514 c -6.822,7.091 -36.65,38.085 -36.65,38.085 l -0.719,0.746 h -0.26 c -0.228,0.227 -0.419,0.418 -0.419,0.418 l -1.116,1.116 -1.473,-0.562 -1.003,-0.383 c -12.064,-4.611 -25.006,-7.049 -38.428,-7.241 -13.499,-0.005 -28.22,2.656 -40.143,7.238 l -2.538,0.973 -1.118,-1.167 c 0,0 -30.25,-31.59 -37.136,-38.782 -49.627019,29.026 -80.339019,82.058 -80.336019,139.18 0.007,37.006 12.799,71.536 37.083,100.324 3.517,-3.592 10.477,-10.702 13.815,-14.114 -13.053,-13.99 -32.917,-45.195 -32.963,-84.371 0,-1.152 0.018,-2.312 0.054,-3.485 1.535,-44.657 20.111,-82.024 54.906019,-110.475 l 2.911,-2.385 24.701,25.547 -3.689,2.783 c -26.831,20.23 -43.036019,50.925 -43.413019,81.936 -0.005,0.443 -0.008,0.89 -0.008,1.332 -0.018,48.522 33.903019,92.112 80.980019,103.811 l 3.103,0.77 v 1.903 c 0,0.022 0,18.279 0,25.313 4.773,0 14.503,0 19.276,0 0,-2.692 0,-6.979 0,-11.088 0,-5.859 0,-11.344 0,-11.354 v -2.418 l 4.062,-0.022 c 29.95,-0.17 60.276,-14.049 79.819,-36.258 -3.511,-3.549 -11.359,-11.481 -15.094,-15.256 -18.851,20.302 -44.958,30.726 -62.757,30.782 -0.736,0 -1.453,-0.018 -2.155,-0.051 l -3.876,-0.202 v -29.415 h 2.431 c 0.028,0 23.244,0 31.234,0.002 0,-4.288 0,-12.422 0,-16.71 -7.996,0 -31.234,0 -31.234,0.003 h -2.431 v -23.834 h 2.431 c 0,0 23.604,0 31.666,0.003 0,-3.815 0,-10.535 0,-14.348 -9.657,0 -43.715,0 -53.373,0 0,13.64 0,77.783 0,77.783 v 3.372 l -5.379,-1.792 c -35.629,-11.85 -58.597,-42.586 -58.577,-78.425 0,-0.557 0.005,-1.118 0.018,-1.68 0.618,-28.792 14.41,-54.742 37.779,-71.039 l 2.852,-1.991 1.44,1.485 c 0,0 36.657,37.819 45.407,46.845 8.514,-8.993 43.716,-46.177 43.716,-46.177 l 1.422,-1.502 2.877,1.955 c 10.19,6.924 18.653,15.911 24.769,26.185 4.129,-3.565 12.08,-10.434 15.616,-13.489 -6.482,-10.035 -15.109,-19.292 -25.186,-26.844 l -3.728,-2.796 24.321,-24.895 2.841,1.963 c 27.314,18.967 54.46,62.72 54.528,110.816 0.043,38.286 -13.03,63.132 -32.474,87.015 3.644,3.646 12.111,12.119 16.084,16.094 23.424,-28.57 36.299,-64.467 36.297,-101.604 0.001,-57.495 -30.873,-110.69 -80.763,-139.623 z m -78.5,82.338 -1.736,1.832 -28.041,-28.632 7.138,-1.616 c 6.373,-1.438 12.986,-2.28 18.008,-2.283 0.592,0 1.169,0.011 1.688,0.036 7.531,0.232 14.379,1.188 20.876,2.929 l 6.624,1.774 -24.557,25.96 z"
   id="path123"
   inkscape:connector-curvature="0"
   style="fill:#febe10" />
</svg>
